<mxfile host="app.diagrams.net" modified="2022-06-10T02:36:17.252Z" agent="5.0 (Windows NT 10.0; Win64; x64) AppleWebKit/537.36 (KHTML, like Gecko) Chrome/102.0.5005.63 Safari/537.36 Edg/102.0.1245.33" etag="CRLBe3LgFoc3jjsLIpy3" version="19.0.3" type="github">
  <diagram id="RMRCRSJFabJXOBfH01yb" name="Page-1">
    <mxGraphModel dx="1800" dy="684" grid="1" gridSize="10" guides="1" tooltips="1" connect="1" arrows="1" fold="1" page="1" pageScale="1" pageWidth="827" pageHeight="1169" math="0" shadow="0">
      <root>
        <mxCell id="0" />
        <mxCell id="1" parent="0" />
        <mxCell id="eOThzZjHxrsogjhqtXI8-8" style="edgeStyle=orthogonalEdgeStyle;rounded=0;orthogonalLoop=1;jettySize=auto;html=1;exitX=0.5;exitY=1;exitDx=0;exitDy=0;entryX=0.5;entryY=0;entryDx=0;entryDy=0;fontFamily=Lucida Console;fontSize=16;" edge="1" parent="1" source="eOThzZjHxrsogjhqtXI8-1" target="eOThzZjHxrsogjhqtXI8-4">
          <mxGeometry relative="1" as="geometry" />
        </mxCell>
        <mxCell id="eOThzZjHxrsogjhqtXI8-1" value="&lt;font face=&quot;Lucida Console&quot;&gt;x265.cpp&lt;br style=&quot;font-size: 16px;&quot;&gt;main()&lt;/font&gt;" style="rounded=0;whiteSpace=wrap;html=1;fontSize=16;" vertex="1" parent="1">
          <mxGeometry x="140" y="130" width="120" height="60" as="geometry" />
        </mxCell>
        <mxCell id="eOThzZjHxrsogjhqtXI8-7" value="" style="edgeStyle=orthogonalEdgeStyle;rounded=0;orthogonalLoop=1;jettySize=auto;html=1;fontFamily=Lucida Console;fontSize=16;" edge="1" parent="1" source="eOThzZjHxrsogjhqtXI8-4" target="eOThzZjHxrsogjhqtXI8-6">
          <mxGeometry relative="1" as="geometry" />
        </mxCell>
        <mxCell id="eOThzZjHxrsogjhqtXI8-4" value="cliopt.parse" style="whiteSpace=wrap;html=1;fontSize=16;fontFamily=Lucida Console;rounded=0;" vertex="1" parent="1">
          <mxGeometry x="140" y="240" width="120" height="60" as="geometry" />
        </mxCell>
        <mxCell id="eOThzZjHxrsogjhqtXI8-6" value="abrEnc=&lt;br&gt;new AbrEncoder" style="whiteSpace=wrap;html=1;fontSize=16;fontFamily=Lucida Console;rounded=0;" vertex="1" parent="1">
          <mxGeometry x="140" y="410" width="120" height="60" as="geometry" />
        </mxCell>
        <mxCell id="eOThzZjHxrsogjhqtXI8-9" value="" style="curved=1;endArrow=classic;html=1;rounded=0;fontFamily=Lucida Console;fontSize=16;exitX=0.5;exitY=1;exitDx=0;exitDy=0;" edge="1" parent="1" source="eOThzZjHxrsogjhqtXI8-6">
          <mxGeometry width="50" height="50" relative="1" as="geometry">
            <mxPoint x="430" y="470" as="sourcePoint" />
            <mxPoint x="200" y="390" as="targetPoint" />
            <Array as="points">
              <mxPoint x="200" y="500" />
              <mxPoint x="130" y="500" />
              <mxPoint x="120" y="390" />
              <mxPoint x="170" y="360" />
            </Array>
          </mxGeometry>
        </mxCell>
        <mxCell id="eOThzZjHxrsogjhqtXI8-10" value="wait for &lt;br&gt;threads finish" style="text;html=1;resizable=0;autosize=1;align=center;verticalAlign=middle;points=[];fillColor=none;strokeColor=none;rounded=0;fontFamily=Lucida Console;fontSize=16;" vertex="1" parent="1">
          <mxGeometry x="-20" y="410" width="150" height="40" as="geometry" />
        </mxCell>
      </root>
    </mxGraphModel>
  </diagram>
</mxfile>
